<svg xmlns="http://www.w3.org/2000/svg" viewBox="0 0 2288 784"><path fill="#61CCF0" fill-rule="evenodd" d="M 1406.9 20.5 C 1406.6 20.7, 1400.3 21.9, 1392.9 23 C 1373 26.2, 1366.2 28.2, 1348.5 36.5 C 1346.9 37.2, 1344.4 38.2, 1343 38.5 C 1341.6 38.9, 1336.6 41.9, 1331.8 45.1 C 1327 48.3, 1322.5 51, 1321.9 51 C 1320 51, 1313.8 55.1, 1310.3 58.6 C 1308.5 60.4, 1305.4 62.4, 1303.3 63.1 C 1298.5 64.6, 1291.7 69.7, 1289.7 73.2 C 1288.8 74.8, 1285.4 77.2, 1280.7 79.4 C 1274 82.6, 1273 83.6, 1271 87.7 C 1268.4 93.2, 1261.4 100.5, 1256.8 102.4 C 1252.5 104.2, 1250.6 106.4, 1248.4 112 C 1246.2 117.6, 1245.4 118.7, 1241 121.5 C 1235.6 124.9, 1232.1 129, 1228.9 135.2 C 1227.3 138.3, 1224.4 142.1, 1222.5 143.6 C 1220.5 145.1, 1217.9 148.2, 1216.8 150.4 C 1214.8 154.4, 1207.6 165.2, 1205.2 168.1 C 1204.5 168.9, 1201 174, 1197.4 179.5 C 1193.8 185, 1189.8 190.6, 1188.5 192 C 1187.3 193.4, 1185.5 197, 1184.6 200 C 1183.7 203.5, 1181.9 206.6, 1180 208.5 C 1178.2 210.2, 1175.3 214.7, 1173.3 218.5 C 1171.4 222.4, 1169.3 226.2, 1168.6 227 C 1166.5 229.6, 1162.9 236.3, 1160.8 241.5 C 1159.7 244.2, 1156.6 250.4, 1153.9 255.1 C 1151.2 259.9, 1149 264.4, 1149 265.2 C 1149 269.1, 1144.1 271.5, 1136.2 271.5 C 1128.9 271.4, 1128.2 271.2, 1123 267.5 C 1115.9 262.5, 1113.3 262.5, 1095 268 C 1078.8 272.8, 1077.9 273.3, 1069.7 280.7 C 1066.5 283.6, 1063.5 286, 1063 286 C 1062.5 286, 1060 287.8, 1057.5 290 C 1053 293.9, 1049.7 295, 1048.5 293.1 C 1048.2 292.6, 1046.6 291.9, 1045 291.5 C 1043.4 291.1, 1041.7 290.3, 1041.3 289.6 C 1040.4 288.2, 1038.2 286.9, 1026.3 281 C 1021.8 278.8, 1017.8 276.5, 1017.5 276.1 C 1017 275.2, 1006.5 272.6, 998.8 271.5 C 994.6 270.8, 993.4 269.3, 992.4 263.1 C 992 260.8, 989.9 256.3, 987.6 252.9 C 985.4 249.5, 981.3 243.1, 978.5 238.6 C 975.8 234, 971.9 228.4, 969.9 225.9 C 968 223.5, 965.2 219, 963.7 216 C 961.9 212.1, 959.7 209.5, 956.5 207.2 C 953.6 205.1, 951.4 202.6, 950.4 200 C 948.5 195.4, 941.9 189.2, 934.7 185.3 C 931.4 183.5, 929.3 181.4, 928.2 179.1 C 926.3 175.1, 920.8 171, 917.5 171 C 916.3 171, 914.5 170.1, 913.5 169 C 912.5 167.9, 911 167, 910.2 167 C 909.5 167, 907.6 166.2, 906.2 165.2 C 898 159.6, 874 156.2, 858.5 158.4 C 841.5 160.9, 832.9 164.7, 821.2 175.2 C 817 178.9, 812 182.5, 810.1 183.1 C 804.8 184.8, 802.3 187.6, 800 194.4 C 797.5 201.9, 794.5 207, 792.6 207 C 790.8 207, 786 212.6, 786 214.8 C 786 216.6, 782.3 224.8, 780.4 227 C 777.4 230.6, 763.8 259.1, 763.3 262.9 C 763 265.1, 762.1 267.5, 761.4 268.1 C 760.6 268.7, 760 269.6, 760 270.1 C 760 270.6, 758.7 272.9, 757 275.2 C 755.4 277.4, 754 280.2, 754 281.3 C 754 284.7, 749 292.4, 744.3 296.1 L 739.8 299.7 719.6 299.6 C 696.8 299.4, 695.2 299, 692.3 292.2 C 690.9 289, 690.9 287.5, 692 280.5 C 694.8 263.7, 692.4 238.8, 687.4 231.5 C 686.6 230.4, 686 228.6, 686 227.5 C 686 226.4, 685.4 224.6, 684.7 223.5 C 683.9 222.4, 683 219.8, 682.7 217.8 C 682.3 215.4, 680.6 212.2, 678.1 209.2 C 675.7 206.4, 673.3 202.2, 672.4 199 C 671.5 196.1, 669.5 192, 667.9 190.1 C 666.3 188.1, 662 182.5, 658.4 177.5 C 654.8 172.6, 651.5 168.3, 651.1 168 C 648.8 166.2, 639.9 154.8, 638.2 151.4 C 637 149.1, 634.6 146.1, 632.9 144.9 C 631.1 143.6, 627.2 140, 624.1 136.8 C 621 133.7, 617.5 130.9, 616.3 130.5 C 615.1 130.2, 612 127.5, 609.5 124.6 C 606.9 121.5, 603.2 118.5, 600.8 117.5 C 598.4 116.4, 595.1 114.4, 593.3 113 C 585.6 106.9, 583.8 105.8, 576.3 102.7 C 560.2 95.8, 545.2 92, 534.2 92 C 526 92.1, 509.9 95.2, 506.5 97.4 C 505.2 98.3, 503.5 99, 502.8 99 C 502.1 99, 499.9 99.8, 498 100.9 C 496.1 101.9, 492.6 103.1, 490.3 103.5 C 487.9 103.8, 484.7 105.1, 483.1 106.3 C 481.4 107.5, 477.9 110, 475.3 111.9 C 472.7 113.8, 468.4 117.1, 465.8 119.2 C 456.1 127.2, 452.6 126.2, 430.1 108.8 C 427.4 106.7, 424.9 105, 424.4 105 C 424 105, 421.5 103.2, 418.8 100.9 C 414.4 97.2, 413 96.7, 404.8 95.4 C 399.8 94.6, 394.9 93.5, 393.9 92.9 C 390.6 91.2, 371.8 88, 361.1 87.4 C 350.3 86.8, 337.4 87.7, 317 90.5 C 310.7 91.4, 302.4 92.5, 298.5 93 C 294.7 93.5, 288.9 94.8, 285.8 96 C 282.6 97.1, 279.3 98, 278.5 98 C 276.8 98, 268.4 101.4, 256 107.2 C 245.9 111.9, 242.6 113, 235.3 113.7 C 229.6 114.2, 228.7 114.6, 225 118.6 C 222.7 121, 219.7 123.2, 218.2 123.5 C 211.1 125, 196.4 129.6, 186.5 133.5 C 180.5 135.8, 173.4 138.3, 170.9 138.9 C 168.4 139.5, 163.7 141.3, 160.5 143 C 157.2 144.7, 153.2 146, 151.1 146 C 149.1 146, 144.8 146.7, 141.5 147.6 C 129 150.8, 126.9 151, 117.5 150 C 112.4 149.5, 103.1 147.8, 96.9 146.4 C 88.1 144.3, 84 143.9, 77.6 144.2 C 66.9 144.8, 63.1 146.7, 52.3 156.7 C 44.6 163.8, 43.3 165.5, 42.2 169.7 C 39.4 181.2, 39.4 182.3, 44 202.6 C 45.6 209.9, 49.1 218.1, 52.1 221.5 C 53.7 223.3, 55 225.2, 55 225.8 C 55 226.3, 55.7 227.3, 56.5 228 C 57.4 228.7, 59.7 232, 61.6 235.4 C 66.6 244.1, 71.4 250.6, 77.6 257.3 C 80.6 260.4, 83 263.4, 83 263.9 C 83 265.8, 88.3 271.1, 91.6 272.5 C 93.7 273.4, 95.6 275.3, 96.9 277.9 C 98.1 280.1, 100.2 282.7, 101.7 283.7 C 104.2 285.4, 108.2 289.2, 114.1 295.7 C 118.1 300, 121.6 302.4, 132 308.1 C 137.2 311, 143.2 314.8, 145.4 316.6 C 151.1 321.5, 154.4 322.7, 166.8 324.4 C 179.5 326.2, 187.3 329, 186.8 331.6 C 186.6 332.6, 181.9 335.7, 175.2 339.1 C 169 342.2, 163.4 345.2, 162.7 345.7 C 162 346.2, 159 347.7, 156 348.9 C 153 350.2, 148.3 353, 145.5 355.2 C 138.9 360.4, 134.4 363.5, 129.5 366.1 C 127.3 367.3, 121.3 371.7, 116.1 375.9 C 110.9 380.1, 104.9 384.9, 102.8 386.5 C 100.6 388.2, 97.6 391.7, 96.2 394.4 C 94.3 397.9, 92.6 399.6, 90.5 400.3 C 85.6 401.9, 82 404.9, 82 407.4 C 82 408.7, 80.9 411.2, 79.5 413.1 C 78.2 415, 76 418.1, 74.7 420 C 73.3 421.9, 71.5 424.1, 70.6 424.9 C 69.8 425.6, 67.1 429.9, 64.8 434.4 C 62.6 438.8, 59.2 445.4, 57.4 449 C 55.5 452.6, 54 456.3, 54 457.2 C 54 458.1, 53.6 459, 53.2 459.2 C 51.2 460, 47.9 467.7, 47.4 472.8 C 47.1 475.9, 46.2 481.4, 45.5 485 C 44.7 488.6, 43.6 493.5, 43.1 496 C 38.8 516, 40 549.8, 45.4 560.1 C 46.8 562.9, 48 565.8, 48 566.6 C 48 567.4, 48.7 569.1, 49.4 570.3 C 50.8 572.4, 52.1 576.7, 53.9 585.3 C 54.4 587.3, 56 590.8, 57.6 593.1 C 61.2 598.1, 61.5 598.7, 63.1 603 C 63.9 604.9, 66.5 609.2, 69 612.5 C 71.6 615.9, 75.4 621.5, 77.6 625 C 79.7 628.4, 84.3 634.2, 87.6 637.7 C 92 642.2, 94.1 645.3, 95 648.6 C 96.3 653.1, 99.9 657, 102.8 657 C 103.6 657, 107.3 660, 110.9 663.8 C 114.6 667.5, 124.1 676.2, 132 683.2 C 140 690.2, 147.7 697, 149.2 698.5 C 151.7 700.8, 163.6 707.4, 182 716.7 C 186.7 719, 190.9 720.2, 197 721 C 210.4 722.6, 219.1 725.1, 222.8 728.2 C 224.6 729.7, 226.7 731, 227.4 731 C 231.2 731, 240.8 737.4, 245.5 743.1 C 248.7 747, 252.6 750.3, 256.5 752.6 C 259.9 754.5, 265.3 758.2, 268.4 761 C 275.5 767.2, 275.7 767.3, 286.5 770.4 C 298.4 773.8, 319.6 775.4, 335.8 774 C 365.3 771.6, 375.5 769.1, 396.5 759.5 C 398.2 758.7, 402.8 757.3, 406.9 756.4 C 410.9 755.4, 415.4 753.7, 416.9 752.5 C 418.3 751.3, 423.6 749, 428.5 747.2 C 433.5 745.5, 442.7 741.3, 449 737.9 C 462 730.9, 465.2 729.3, 473 725.6 C 476 724.1, 480.5 721.9, 483 720.5 C 485.5 719.2, 488.1 718.1, 488.9 718.1 C 489.6 718, 493 716.3, 496.3 714.3 C 511.5 705.1, 535.9 693, 539.3 693 C 540.7 693, 542.8 694.1, 544.1 695.6 C 545.4 697, 548.4 699.5, 550.8 701.1 C 553.3 702.9, 557 707.1, 559.5 711 C 561.9 714.7, 565.4 719, 567.3 720.4 C 569.2 721.9, 572.6 725.6, 574.8 728.8 C 579.1 734.8, 598 754, 599.7 754 C 600.2 754, 603.4 756.7, 606.8 760 C 610.1 763.3, 613.7 766, 614.7 766 C 617.1 766, 629.1 769.8, 630.6 771.1 C 637.2 776.6, 676.5 776.9, 697.5 771.7 C 706.7 769.3, 711.4 767.9, 712.5 767 C 713.1 766.5, 715.2 765.9, 717.3 765.5 C 719.3 765.1, 721.3 764.4, 721.6 763.9 C 721.8 763.4, 724.3 762.8, 727.1 762.4 C 730.7 761.9, 733.3 760.8, 736 758.5 C 738.1 756.8, 741.3 754.8, 743.2 754.1 C 748.9 751.9, 752.3 749.8, 757.4 745.3 C 760.2 742.8, 765.3 738.9, 769 736.6 C 772.6 734.3, 777.1 730.4, 779 728.1 C 783.9 722.1, 787.9 718.4, 791.8 716.3 C 794.3 714.9, 796.1 712.6, 799.1 706.5 C 801.3 702.1, 804.3 696.8, 805.8 694.8 C 813.3 684.6, 814.8 682, 816.7 675.5 C 817.8 671.7, 820 664.5, 821.5 659.7 C 823 654.8, 824 650, 823.7 648.9 C 822.9 646, 825.6 630.2, 827.1 628.4 C 828.6 626.6, 837.6 622, 839.8 622 C 841.3 622, 846.7 619.3, 862.4 610.8 C 866.8 608.4, 884.9 609.1, 891.5 612 C 896.2 614.1, 918.7 612.1, 931.5 608.6 C 934.3 607.8, 938.4 606.7, 940.7 606.1 C 943 605.4, 947.2 603, 950.1 600.5 C 957.4 594.3, 961.9 593, 976.7 593 C 987.2 593, 989.8 593.3, 993.7 595.1 C 1001.1 598.4, 1017.2 599.6, 1028.5 597.5 C 1033.5 596.6, 1040.4 595.4, 1044 594.9 C 1047.6 594.3, 1053.2 593.2, 1056.5 592.5 C 1063.3 591, 1076.6 592.4, 1085.1 595.5 C 1098.3 600.4, 1107.3 602.2, 1117 601.7 C 1126.8 601.2, 1129.3 601.7, 1135.9 605.5 C 1141.7 608.9, 1145.4 612.6, 1151.6 621.2 C 1154.8 625.7, 1163.6 635.8, 1171.1 643.5 C 1178.6 651.2, 1185.1 658.7, 1185.5 660 C 1186.5 663.5, 1189.9 666.9, 1194 668.6 C 1195.9 669.4, 1199.3 671.8, 1201.5 673.9 C 1208.2 680.2, 1215.2 685.5, 1221.5 688.9 C 1224.8 690.7, 1229 693.3, 1230.7 694.7 C 1232.5 696, 1235.9 697.7, 1238.2 698.6 C 1240.5 699.4, 1244.6 701.4, 1247.2 703.1 C 1250.6 705.3, 1253.9 706.4, 1258.7 707 C 1262.5 707.5, 1271.1 708.9, 1278 710.1 C 1300.5 714.2, 1334.8 712.9, 1350.4 707.4 C 1352.7 706.7, 1358.7 705.5, 1363.9 704.8 C 1371.7 703.8, 1373.9 703.2, 1376.4 700.9 C 1379.6 698.2, 1382.9 696.7, 1398 691.1 C 1409.3 686.9, 1410.8 686.1, 1415.5 682.4 C 1417.7 680.7, 1420.6 678.7, 1422 678 C 1423.4 677.3, 1425 676.2, 1425.5 675.5 C 1426.1 674.9, 1429 673.6, 1432 672.7 C 1438.3 670.7, 1439.6 669.9, 1443.3 664.9 C 1444.8 662.9, 1448.4 660.1, 1451.7 658.5 C 1455.2 656.8, 1460.2 653, 1464.3 648.9 C 1468.1 645.1, 1471.8 642, 1472.5 642 C 1473.3 642, 1477.8 638.2, 1482.6 633.6 C 1487.4 629, 1493.1 624.2, 1495.3 622.9 C 1497.6 621.6, 1500.8 619, 1502.5 617.2 C 1504.1 615.3, 1507 612.3, 1508.9 610.5 C 1510.7 608.7, 1513.6 606, 1515.2 604.4 C 1516.8 602.8, 1519.6 599.5, 1521.3 597.1 C 1525.2 591.7, 1531 588.5, 1536.8 588.6 C 1542.1 588.7, 1546 592.2, 1551 601 C 1553.5 605.5, 1555.4 607.4, 1559.1 609.5 C 1561.7 610.9, 1565.4 613.7, 1567.2 615.6 C 1572.3 621.1, 1571.9 621, 1597.5 625.1 C 1610.5 627.1, 1636 624.3, 1649 619.3 C 1662.8 613.9, 1678.8 604.6, 1681.3 600.3 C 1684.5 594.9, 1697.1 593.7, 1719.9 596.5 C 1738.8 598.9, 1755.9 599, 1762.3 597 C 1776.4 592.3, 1801.4 590.9, 1809.4 594.3 C 1814.3 596.5, 1815.4 596.4, 1823 594 C 1827 592.7, 1832 592, 1836.9 592 C 1841.1 592, 1852.8 591.5, 1863 590.9 C 1880 589.9, 1882 589.6, 1887.5 587 C 1905.2 578.6, 1920.1 577.1, 1930.5 582.6 C 1935.1 585.1, 1944 588, 1946.9 588 C 1949.5 588, 1952.4 587.2, 1965.5 582.9 C 1978.6 578.6, 1985.9 579, 1999.7 584.6 C 2014.7 590.6, 2020.4 591.3, 2026 587.6 C 2028.2 586.2, 2030.4 585, 2030.9 585 C 2031.4 585, 2033.2 583.9, 2034.8 582.5 C 2036.5 581.1, 2039.5 579.3, 2041.7 578.4 C 2047.5 576, 2052.8 571.2, 2062.8 559.3 C 2067.8 553.4, 2073.3 547.7, 2075 546.6 C 2077.1 545.4, 2079.1 542.9, 2080.6 539.6 C 2085 530, 2085.6 529.7, 2102.2 530.2 C 2116.3 530.7, 2116.6 530.7, 2125 534.6 C 2136.2 539.7, 2144.5 540, 2153.6 535.6 C 2156.8 534.1, 2161 532.1, 2162.8 531.4 C 2171.3 527.7, 2173.9 526.1, 2180 520.5 C 2194.7 506.9, 2206.9 493.4, 2209.1 488.3 C 2210.2 485.8, 2211.9 482.6, 2212.9 481.1 C 2218.6 473.2, 2224.9 458.7, 2225.5 452.2 C 2225.9 448.5, 2226.8 443.8, 2227.6 441.7 C 2228.5 439.2, 2229 433.8, 2229 425.1 C 2229 410.7, 2227.6 404.9, 2222.1 396.9 C 2220.4 394.3, 2219 391.7, 2219 391.2 C 2219 390.6, 2217.4 388.4, 2215.5 386.3 C 2213.5 384.2, 2210.4 379.7, 2208.4 376.3 C 2206.4 372.6, 2203.7 369.4, 2202.1 368.5 C 2200.5 367.7, 2197.5 365.1, 2195.5 362.8 C 2191.8 358.5, 2191.8 358.5, 2192.3 351.2 C 2193 341.7, 2194.5 339.5, 2201.8 337.4 C 2205.3 336.4, 2208.8 334.5, 2211 332.5 C 2212.9 330.7, 2219 326.9, 2224.5 324 C 2234.9 318.6, 2240.4 313.7, 2249.8 301.6 C 2256.6 292.7, 2257.4 290.2, 2257.4 276.5 C 2257.5 260.7, 2252.4 243.3, 2243.2 227.2 C 2241.1 223.5, 2238.5 218.3, 2237.6 215.7 C 2236.3 212.3, 2234.7 210.2, 2231.9 208.3 C 2229.2 206.5, 2227.1 203.9, 2225.1 199.6 C 2223.5 196.3, 2220.8 192.2, 2219.1 190.5 C 2217.5 188.9, 2214.7 186.2, 2213.1 184.5 C 2211.4 182.9, 2210 181.1, 2210 180.5 C 2209.9 176.4, 2204.9 169.2, 2200.7 167.2 C 2195.9 164.9, 2188 156.7, 2185.2 151 C 2183.9 148.4, 2181.9 146.7, 2177.2 144.4 C 2173.8 142.7, 2169.2 139.8, 2167 138 C 2159.9 132, 2155.6 130.6, 2144.5 130.6 C 2133.2 130.6, 2127 132.5, 2119.2 138.8 C 2116.6 140.9, 2110.7 143.7, 2103.7 146.2 C 2083.7 153.3, 2086.4 153.1, 2081.6 147.7 C 2075 140.3, 2060.6 134.5, 2048.5 134.5 C 2039.9 134.5, 2039 134.7, 2028.5 139.3 C 2022.5 141.9, 2015.8 145.6, 2013.7 147.5 C 2010.4 150.5, 2009.6 150.7, 2006.7 150 C 2003.1 149, 1984.9 145.8, 1972 143.9 C 1961.3 142.3, 1956.6 140.1, 1954.1 135.2 C 1953 133.2, 1947.6 126.8, 1942 121 C 1936.5 115.2, 1931.2 109.2, 1930.3 107.5 C 1928.6 104.2, 1922 95.7, 1920.7 95.2 C 1920.3 95, 1918.9 92.7, 1917.6 90.1 C 1916.3 87.6, 1913.9 84.2, 1912.4 82.7 C 1910.8 81.2, 1907.9 78.5, 1906 76.7 C 1904.1 74.8, 1901.3 72, 1899.9 70.4 C 1898.5 68.8, 1896.5 67, 1895.4 66.4 C 1894.4 65.8, 1891.8 63.1, 1889.8 60.4 C 1887 56.7, 1884.3 54.7, 1879.3 52.3 C 1875.5 50.5, 1871.8 48.6, 1871 48.1 C 1863.4 43, 1849.8 41.4, 1842.2 44.6 C 1832.9 48.4, 1819.2 52.4, 1811.5 53.5 C 1805.7 54.3, 1800.6 55.8, 1791 59.4 C 1779.1 64, 1769.8 67, 1767.9 67 C 1765.9 67, 1760 73.4, 1760 75.6 C 1760 79.3, 1755.2 84.7, 1751.3 85.3 C 1726.3 89.3, 1697.5 88.6, 1680 83.5 C 1666.3 79.5, 1665.2 78.8, 1658.2 69.3 C 1655.7 65.8, 1652.8 62.8, 1651.8 62.4 C 1650.8 62.1, 1650 61.5, 1650 61.1 C 1650 60.7, 1647.6 59.3, 1644.8 58.1 C 1637.9 55.1, 1634.1 53.2, 1631 51.5 C 1624.7 47.9, 1599.1 51.3, 1587.6 57.2 C 1586.6 57.8, 1583.4 58.9, 1580.6 59.7 C 1574.6 61.5, 1562.7 68.6, 1555.3 74.8 C 1546.6 82.1, 1538.1 82, 1530.9 74.4 C 1506.1 48.7, 1497.2 41.3, 1488.9 39.5 C 1487.4 39.2, 1485.4 38, 1484.4 36.9 C 1483.5 35.9, 1482.2 35, 1481.7 35 C 1481.1 35, 1478.4 33.9, 1475.6 32.6 C 1459.8 25.3, 1455.8 24.1, 1440 22 C 1426.7 20.2, 1408 19.3, 1406.9 20.5 M 1385 319 C 1380.6 320.1, 1378.4 322.8, 1377.6 328.4 C 1377.1 331.4, 1375.7 334.3, 1373.5 337 C 1371.6 339.3, 1369.5 343, 1368.9 345.3 C 1368.3 347.6, 1366.5 351.5, 1365 354 C 1358.5 364.1, 1344.6 398.7, 1342.9 409 C 1341.8 414.9, 1340.1 420.1, 1334.5 435 C 1332.5 440.2, 1330.5 447.2, 1330 450.4 C 1329.5 453.7, 1328.2 459.3, 1327.1 462.9 C 1322.6 478, 1321.2 488.8, 1320.8 510.9 C 1320.6 526.1, 1321 527, 1328.3 527 C 1331.8 527, 1332.9 526.4, 1337.4 521.7 C 1341.2 517.7, 1344.3 515.6, 1349.5 513.5 C 1354.8 511.4, 1358 509.2, 1362.7 504.6 C 1373.3 494.2, 1380.5 487.9, 1383.9 486.2 C 1388.4 484.1, 1392.6 479.7, 1396.1 473.5 C 1397.7 470.6, 1401.3 466.4, 1404.1 464 C 1406.9 461.6, 1409.9 458.1, 1410.7 456.3 C 1411.4 454.4, 1414.7 450.1, 1417.8 446.7 C 1421 443.3, 1425 438, 1426.7 435 C 1428.5 432, 1431.5 427.9, 1433.5 426 C 1437.8 421.9, 1440.4 416.5, 1441.4 409.6 C 1442 406.1, 1443.2 403.4, 1445.4 400.8 C 1449.6 395.9, 1450.5 393.9, 1452.6 384.8 C 1454.7 375.4, 1453.8 372.7, 1447.5 368.1 C 1445.1 366.4, 1442.1 363.6, 1440.9 361.9 C 1439.6 360, 1436.3 357.7, 1432.6 356 C 1426.1 353.1, 1421.9 349, 1419.5 343.4 C 1418.7 341.4, 1416.4 339.1, 1413.8 337.4 C 1408.9 334.4, 1406.1 331.3, 1406 328.9 C 1406 328, 1404.1 325.3, 1401.7 322.8 C 1397 318, 1392.9 317.1, 1385 319 M 228.3 541.5 C 227.1 542.3, 225.4 545.4, 224.4 548.2 C 223.5 551.1, 221 555.6, 218.9 558.3 C 214 564.5, 214.6 567.6, 220.6 567.3 C 240.4 566.1, 243.8 565.5, 247.7 562.4 C 254 557.3, 254.5 552.2, 249.5 546.2 C 245.1 540.9, 232.9 538.3, 228.3 541.5"/></svg>